<svg xmlns="http://www.w3.org/2000/svg" xmlns:xlink="http://www.w3.org/1999/xlink" viewBox="0 0 143.99 150"><defs><style>.cls-1{fill:url(#linear-gradient);}.cls-2{fill:url(#linear-gradient-2);}</style><linearGradient id="linear-gradient" x1="59.56" x2="59.56" y2="150" gradientUnits="userSpaceOnUse"><stop offset="0" stop-color="#27b5ac"/><stop offset="1" stop-color="#003b3e"/></linearGradient><linearGradient id="linear-gradient-2" x1="83.91" y1="150" x2="83.91" y2="0" xlink:href="#linear-gradient"/></defs><title>Asset 8</title><g id="Layer_2" data-name="Layer 2"><g id="path"><g id="circle"><path class="cls-1" d="M82.31,30a29.38,29.38,0,0,0-11.7,2.44C85,38.61,95.31,55.78,95.31,76s-10.74,37.38-25.14,43.56h0A29.38,29.38,0,0,1,58.47,122c-20,0-34.45-20.31-34.65-45.47C24,35,51.55,0,84.54,0L59.7.25C26.58.25,0,34.16,0,76s26.83,74,59.95,74,59.17-32.3,59.17-74C119.12,50.59,102.49,30,82.31,30Z"/><path class="cls-2" d="M84.54,0C51.55,0,24,35,23.82,76.53,24,101.69,38.43,122,58.47,122a29.38,29.38,0,0,0,11.7-2.44c-14.4-6.17-24.7-23.34-24.7-43.56S56.21,38.62,70.61,32.44h0A29.38,29.38,0,0,1,82.31,30c20.18,0,36.81,20.59,36.81,46,0,41.7-26,74-59.17,74l24.34-.25c33.12,0,59.7-32.91,59.7-74.75S117.67,0,84.54,0Z"/></g></g></g></svg>