<svg xmlns="http://www.w3.org/2000/svg" xmlns:xlink="http://www.w3.org/1999/xlink" viewBox="0 0 212.37 236.43"><defs><style>.cls-1{fill:url(#linear-gradient);}.cls-2{fill:url(#linear-gradient-2);}.cls-3{fill:url(#linear-gradient-3);}.cls-4{fill:url(#linear-gradient-4);}.cls-5{fill:url(#linear-gradient-5);}.cls-6{fill:url(#linear-gradient-6);}.cls-7{fill:url(#linear-gradient-7);}.cls-8{fill:url(#linear-gradient-8);}.cls-9{fill:url(#linear-gradient-9);}.cls-10{fill:url(#linear-gradient-10);}.cls-11{fill:url(#linear-gradient-11);}.cls-12{fill:url(#linear-gradient-12);}.cls-13{fill:url(#linear-gradient-13);}.cls-14{fill:url(#linear-gradient-14);}.cls-15{fill:url(#linear-gradient-15);}.cls-16{fill:url(#linear-gradient-16);}.cls-17{fill:url(#linear-gradient-17);}.cls-18{fill:url(#linear-gradient-18);}</style><linearGradient id="linear-gradient" x1="78.75" y1="106.8" x2="78.75" gradientUnits="userSpaceOnUse"><stop offset="0" stop-color="#27b5ac"/><stop offset="1" stop-color="#003b3e"/></linearGradient><linearGradient id="linear-gradient-2" x1="118.75" y1="55.41" x2="118.75" y2="23.5" xlink:href="#linear-gradient"/><linearGradient id="linear-gradient-3" x1="45.17" y1="55.41" x2="45.17" y2="160.41" gradientUnits="userSpaceOnUse"><stop offset="0.62" stop-color="#27b5ac"/><stop offset="0.69" stop-color="#22a49d"/><stop offset="0.83" stop-color="#147976"/><stop offset="1" stop-color="#003b3e"/></linearGradient><linearGradient id="linear-gradient-4" x1="20.51" y1="125.79" x2="49.48" y2="96.82" xlink:href="#linear-gradient"/><linearGradient id="linear-gradient-5" x1="44.52" y1="145.36" x2="20.35" y2="145.36" xlink:href="#linear-gradient"/><linearGradient id="linear-gradient-6" x1="94.03" y1="183.91" x2="94.03" y2="212.93" gradientUnits="userSpaceOnUse"><stop offset="0" stop-color="#27b5ac"/><stop offset="0.01" stop-color="#26b1a8"/><stop offset="0.07" stop-color="#1c918c"/><stop offset="0.13" stop-color="#137674"/><stop offset="0.21" stop-color="#0c6060"/><stop offset="0.3" stop-color="#074f50"/><stop offset="0.41" stop-color="#034446"/><stop offset="0.57" stop-color="#013d40"/><stop offset="1" stop-color="#003b3e"/></linearGradient><linearGradient id="linear-gradient-7" x1="149.68" y1="166.29" x2="185.23" y2="166.29" xlink:href="#linear-gradient"/><linearGradient id="linear-gradient-8" x1="178.7" y1="105.66" x2="178.7" y2="78.91" xlink:href="#linear-gradient"/><linearGradient id="linear-gradient-9" x1="60.62" y1="73.04" x2="28.42" y2="73.04" xlink:href="#linear-gradient"/><linearGradient id="linear-gradient-10" x1="23.94" y1="125.56" x2="96.54" y2="198.17" gradientUnits="userSpaceOnUse"><stop offset="0.51" stop-color="#27b5ac"/><stop offset="0.97" stop-color="#024244"/><stop offset="1" stop-color="#003b3e"/></linearGradient><linearGradient id="linear-gradient-11" x1="122.55" y1="178.04" x2="0" y2="178.04" xlink:href="#linear-gradient"/><linearGradient id="linear-gradient-12" x1="168.49" y1="183.91" x2="168.49" y2="78.91" gradientUnits="userSpaceOnUse"><stop offset="0.61" stop-color="#27b5ac"/><stop offset="0.69" stop-color="#1b8f89"/><stop offset="0.78" stop-color="#0f6b69"/><stop offset="0.87" stop-color="#075051"/><stop offset="0.94" stop-color="#024143"/><stop offset="1" stop-color="#003b3e"/></linearGradient><linearGradient id="linear-gradient-13" x1="133.23" y1="129.79" x2="133.23" y2="236.43" xlink:href="#linear-gradient"/><linearGradient id="linear-gradient-14" x1="98.13" x2="98.13" y2="117.88" gradientUnits="userSpaceOnUse"><stop offset="0.26" stop-color="#27b5ac"/><stop offset="0.58" stop-color="#26b3aa"/><stop offset="0.69" stop-color="#24aca4"/><stop offset="0.78" stop-color="#20a19a"/><stop offset="0.84" stop-color="#1b908a"/><stop offset="0.9" stop-color="#147a76"/><stop offset="0.95" stop-color="#0b5f5e"/><stop offset="0.99" stop-color="#013f42"/><stop offset="1" stop-color="#003b3e"/></linearGradient><linearGradient id="linear-gradient-15" x1="178.66" y1="78.91" x2="178.66" y2="183.91" xlink:href="#linear-gradient"/><linearGradient id="linear-gradient-16" x1="87.4" y1="61.29" x2="210.3" y2="61.29" xlink:href="#linear-gradient"/><linearGradient id="linear-gradient-17" x1="210.3" y1="92.52" x2="80.52" y2="92.52" gradientUnits="userSpaceOnUse"><stop offset="0.56" stop-color="#27b5ac"/><stop offset="0.8" stop-color="#127371"/><stop offset="1" stop-color="#003b3e"/></linearGradient><linearGradient id="linear-gradient-18" x1="114.64" y1="236.43" x2="114.64" y2="117.88" xlink:href="#linear-gradient-3"/></defs><title>Asset 13</title><g id="Layer_2" data-name="Layer 2"><g id="path"><g id="double_triangle" data-name="double triangle"><polyline class="cls-1" points="99.4 0 112.97 0 51.31 106.8 44.52 95.05 99.4 0"/><polyline class="cls-2" points="106.11 35.12 117.83 55.41 131.39 55.41 112.97 23.5 106.11 35.12"/><polyline class="cls-3" points="67.41 55.41 8.07 55.41 68.69 160.41 82.26 160.41 28.42 67.17 60.62 67.17 67.41 55.41"/><polyline class="cls-4" points="8.07 55.41 1.29 67.17 55.13 160.41 68.69 160.41 8.07 55.41"/><polyline class="cls-5" points="37.74 130.3 44.52 142.05 33.77 160.41 20.35 160.41 37.74 130.3"/><polyline class="cls-6" points="95.83 183.91 105.8 201.18 99.01 212.93 82.26 183.91 95.83 183.91"/><polyline class="cls-7" points="156.47 160.41 178.45 160.41 185.23 172.16 149.68 172.16 156.47 160.41"/><polyline class="cls-8" points="176.38 78.92 189.95 78.92 173.97 105.67 167.46 94.38 176.38 78.92"/><polyline class="cls-9" points="34.99 78.92 53.84 78.92 60.62 67.17 28.42 67.17 34.99 78.92"/><polyline class="cls-10" points="30.95 118.55 0 172.16 122.55 172.16 129.33 160.41 20.35 160.41 37.74 130.3 30.95 118.55"/><polyline class="cls-11" points="0 172.16 6.78 183.91 115.76 183.91 122.55 172.16 0 172.16"/><polyline class="cls-12" points="131.39 78.92 144.96 78.92 205.58 183.91 142.9 183.91 149.68 172.16 185.23 172.16 131.39 78.92"/><polyline class="cls-13" points="160.58 129.79 167.46 141.38 112.58 236.43 99.01 236.43 160.58 129.79"/><polyline class="cls-14" points="51.31 106.8 57.7 117.88 112.97 23.5 131.39 55.41 144.96 55.41 112.97 0 51.31 106.8"/><polyline class="cls-15" points="212.37 172.16 205.58 183.91 144.96 78.92 158.53 78.92 212.37 172.16"/><polyline class="cls-16" points="203.52 55.41 210.3 67.17 87.4 67.17 94.28 55.41 203.52 55.41"/><polygon class="cls-17" points="87.4 67.17 80.52 78.92 189.95 78.92 173.97 105.67 181.02 117.88 210.3 67.17 87.4 67.17"/><polyline class="cls-18" points="153.89 117.88 160.58 129.79 99.01 236.43 68.69 183.91 82.26 183.91 99.01 212.93 153.89 117.88"/></g></g></g></svg>