<svg xmlns="http://www.w3.org/2000/svg" xmlns:xlink="http://www.w3.org/1999/xlink" viewBox="0 0 162.5 164.63"><defs><style>.cls-1{fill:url(#linear-gradient);}.cls-2{fill:url(#linear-gradient-2);}.cls-3{fill:url(#linear-gradient-3);}.cls-4{fill:url(#linear-gradient-4);}.cls-5{fill:url(#linear-gradient-5);}.cls-6{fill:#024c3f;}.cls-7{fill:url(#linear-gradient-6);}.cls-8{fill:url(#linear-gradient-7);}.cls-9{fill:url(#linear-gradient-8);}.cls-10{fill:url(#linear-gradient-9);}.cls-11{fill:url(#linear-gradient-10);}.cls-12{fill:url(#linear-gradient-11);}.cls-13{fill:url(#linear-gradient-12);}.cls-14{fill:url(#linear-gradient-13);}.cls-15{fill:url(#linear-gradient-14);}.cls-16{fill:url(#linear-gradient-15);}</style><linearGradient id="linear-gradient" x1="122.73" y1="19.85" x2="118.71" y2="26.81" gradientUnits="userSpaceOnUse"><stop offset="0" stop-color="#27b5ac"/><stop offset="1" stop-color="#003b3e"/></linearGradient><linearGradient id="linear-gradient-2" x1="0" y1="31.36" x2="162.25" y2="31.36" xlink:href="#linear-gradient"/><linearGradient id="linear-gradient-3" x1="77.07" y1="37.36" x2="41.43" y2="1.71" xlink:href="#linear-gradient"/><linearGradient id="linear-gradient-4" x1="57.52" y1="114.5" x2="55.66" y2="103.98" xlink:href="#linear-gradient"/><linearGradient id="linear-gradient-5" x1="62" y1="79.63" x2="92" y2="79.63" xlink:href="#linear-gradient"/><linearGradient id="linear-gradient-6" x1="149.48" y1="121.85" x2="98.45" y2="103.28" xlink:href="#linear-gradient"/><linearGradient id="linear-gradient-7" x1="59.03" y1="123.1" x2="56.56" y2="109.06" xlink:href="#linear-gradient"/><linearGradient id="linear-gradient-8" x1="7" y1="82.57" x2="15" y2="82.57" xlink:href="#linear-gradient"/><linearGradient id="linear-gradient-9" x1="31" y1="164.63" x2="31" y2="27.29" xlink:href="#linear-gradient"/><linearGradient id="linear-gradient-10" x1="7" y1="137.14" x2="55" y2="137.14" xlink:href="#linear-gradient"/><linearGradient id="linear-gradient-11" x1="124.45" y1="113.15" x2="117.48" y2="123.09" xlink:href="#linear-gradient"/><linearGradient id="linear-gradient-12" x1="113.21" y1="145.89" x2="111.32" y2="135.16" xlink:href="#linear-gradient"/><linearGradient id="linear-gradient-13" x1="112.19" y1="34.61" x2="112.19" y2="164.63" xlink:href="#linear-gradient"/><linearGradient id="linear-gradient-14" x1="78.34" y1="36.09" x2="123.84" y2="81.59" xlink:href="#linear-gradient"/><linearGradient id="linear-gradient-15" x1="106.37" y1="57.2" x2="85.53" y2="60.88" xlink:href="#linear-gradient"/></defs><title>Asset 9</title><g id="Layer_2" data-name="Layer 2"><g id="path"><g id="cube"><polyline class="cls-1" points="99 15.43 99 6.43 146.34 33.48 135.89 36.37 99 15.43"/><polyline class="cls-2" points="0 27.29 62 62.71 92 54.5 92 47.67 63.44 55.82 15 28.14 99 6.43 146.34 33.48 107 44.36 107 50.36 162.25 34.61 100.99 0 0 27.29"/><polyline class="cls-3" points="99 15.43 26.43 34.67 15 28.14 99 6.43 99 15.43"/><polyline class="cls-4" points="15 122 99.07 101.56 92 97.57 15 116 15 122"/><polyline class="cls-5" points="62 62.71 62 104.75 70 102.84 70 69.33 92 63.33 92 54.5 62 62.71"/><polyline class="cls-6" points="146.92 128.88 153.83 132.33 154.25 46.68 147 48.49 146.92 128.88"/><polyline class="cls-7" points="146.92 128.88 146.92 121.24 107 98.43 99.07 101.56 146.92 128.88"/><polyline class="cls-8" points="15 122 26.97 128.75 99.5 110.5 99.07 101.56 15 122"/><polyline class="cls-9" points="15 122 7 124.86 7 40.29 15 44.86 15 122"/><polyline class="cls-10" points="61.88 164.63 0 129.86 0 27.29 62 62.71 62 104.75 55 106.43 55 67.71 7 40.29 7 124.86 55 152.29 55 121.7 61.88 119.97 61.88 164.63"/><polyline class="cls-11" points="55 144.57 55 152.29 7 124.86 15 122 55 144.57"/><polygon class="cls-12" points="99.5 110.5 99.07 101.56 146.92 128.88 136.5 131.5 99.5 110.5"/><polygon class="cls-13" points="146.92 128.88 71.51 147.87 71.5 153.25 153.83 132.33 146.92 128.88"/><polygon class="cls-14" points="61.88 164.63 162.5 137.5 162.25 34.61 107 50.36 107 58.49 154.25 46.68 153.83 132.33 71.5 153.25 71.57 117.53 61.88 119.97 61.88 164.63"/><polyline class="cls-15" points="99.07 101.56 107 98.43 107 20 99 15.43 99.07 101.56"/><polyline class="cls-16" points="92 97.57 92 17.29 99 15.43 99.07 101.56 92 97.57"/></g></g></g></svg>