<svg xmlns="http://www.w3.org/2000/svg" xmlns:xlink="http://www.w3.org/1999/xlink" viewBox="0 0 205 199.17"><defs><style>.cls-1{fill:url(#linear-gradient);}.cls-2{fill:url(#linear-gradient-2);}.cls-3{fill:url(#linear-gradient-3);}.cls-4{fill:url(#linear-gradient-4);}.cls-5{fill:url(#linear-gradient-5);}.cls-6{fill:url(#linear-gradient-6);}.cls-7{fill:url(#linear-gradient-7);}.cls-8{fill:url(#linear-gradient-8);}.cls-9{fill:url(#linear-gradient-9);}.cls-10{fill:url(#linear-gradient-10);}.cls-11{fill:url(#linear-gradient-11);}.cls-12{fill:url(#linear-gradient-12);}.cls-13{fill:url(#linear-gradient-13);}</style><linearGradient id="linear-gradient" x1="82.29" y1="129.91" x2="74.49" y2="108.48" gradientUnits="userSpaceOnUse"><stop offset="0" stop-color="#27b5ac"/><stop offset="1" stop-color="#003b3e"/></linearGradient><linearGradient id="linear-gradient-2" x1="85.5" y1="7" x2="85.5" y2="0" xlink:href="#linear-gradient"/><linearGradient id="linear-gradient-3" x1="51" y1="146.57" x2="114.09" y2="146.57" xlink:href="#linear-gradient"/><linearGradient id="linear-gradient-4" x1="4.75" y1="161.75" x2="12.25" y2="154.25" xlink:href="#linear-gradient"/><linearGradient id="linear-gradient-5" x1="45" y1="159" x2="45" y2="128" xlink:href="#linear-gradient"/><linearGradient id="linear-gradient-6" x1="17" y1="152" x2="90" y2="152" xlink:href="#linear-gradient"/><linearGradient id="linear-gradient-7" x1="205" y1="100.89" x2="34.28" y2="100.89" xlink:href="#linear-gradient"/><linearGradient id="linear-gradient-8" x1="205" y1="124.21" x2="121.36" y2="124.21" xlink:href="#linear-gradient"/><linearGradient id="linear-gradient-9" x1="115" y1="48.75" x2="91" y2="48.75" xlink:href="#linear-gradient"/><linearGradient id="linear-gradient-10" x1="133" y1="153.31" x2="102" y2="153.31" xlink:href="#linear-gradient"/><linearGradient id="linear-gradient-11" x1="109.97" y1="134.21" x2="66.83" y2="59.49" xlink:href="#linear-gradient"/><linearGradient id="linear-gradient-12" x1="84.48" y1="78.66" x2="72.96" y2="58.7" xlink:href="#linear-gradient"/><linearGradient id="linear-gradient-13" x1="81.75" y1="91.5" x2="81.75" y2="1" xlink:href="#linear-gradient"/></defs><title>Asset 11</title><g id="Layer_2" data-name="Layer 2"><g id="path"><g id="cross"><path class="cls-1" d="M69.55,133l13-3.18,1-15.32C83.91,113,86,111,90,113c-6-5-8.17-5.23-9.5-5.5-4-.79-8,2-9,3.5C71,110.5,69.55,133,69.55,133Z"/><polygon class="cls-2" points="72 1 91 7 99 6 80 0 72 1"/><path class="cls-3" d="M61.1,94l-4.19,42.11L69.55,133s1.45-21.5,2-22a10.76,10.76,0,0,1,8.44-3.52C83.28,107.57,90,113,90,113v33l-34.62,9.49L51,191l63.09,8.17L102,107.45Z"/><polygon class="cls-4" points="0 150 0 157 17 166 17 159 0 150"/><polygon class="cls-5" points="90 128 90 138 17 159 0 150 90 128"/><polygon class="cls-6" points="17 166 17 159 90 138 90 146 17 166"/><polygon class="cls-7" points="34.28 78.28 145.63 113.63 119.64 121.17 121.36 131.27 205 109 84.5 70.5 34.28 78.28"/><polygon class="cls-8" points="205 117 205 109 121.36 131.27 122.78 139.42 205 117"/><polygon class="cls-9" points="99 6 115 91 100.5 91.5 91 7 99 6"/><polygon class="cls-10" points="102 107.45 114.09 199.17 133 198 118.13 112.77 102 107.45"/><polygon class="cls-11" points="34.06 85.06 34.28 78.28 145.63 113.63 132.5 117.5 34.06 85.06"/><path class="cls-12" d="M86.67,59.33A6.09,6.09,0,0,0,82,55c-4-1-5.5,3-5.5,3L74,84l7-3.31L83,63a4.94,4.94,0,0,1,1-3A2.2,2.2,0,0,1,86.67,59.33Z"/><path class="cls-13" d="M88,87l12.5,4.5L91,7,72,1,63,81l11,3,2.5-26S78,54,82,55a6.09,6.09,0,0,1,4.67,4.33Z"/></g></g></g></svg>