<svg xmlns="http://www.w3.org/2000/svg" xmlns:xlink="http://www.w3.org/1999/xlink" viewBox="0 0 184.56 175.27"><defs><style>.cls-1{fill:url(#linear-gradient);}.cls-2{fill:url(#linear-gradient-2);}.cls-3{fill:url(#linear-gradient-3);}.cls-4{fill:url(#linear-gradient-4);}.cls-5{fill:url(#linear-gradient-5);}.cls-6{fill:url(#linear-gradient-6);}</style><linearGradient id="linear-gradient" x1="-2.19" y1="39.27" x2="113.99" y2="155.44" gradientTransform="translate(76.83 -29.93) rotate(37.37)" gradientUnits="userSpaceOnUse"><stop offset="0" stop-color="#27b5ac"/><stop offset="1" stop-color="#003b3e"/></linearGradient><linearGradient id="linear-gradient-2" x1="131.76" y1="89.94" x2="39.45" y2="-2.37" xlink:href="#linear-gradient"/><linearGradient id="linear-gradient-3" x1="43.16" y1="117.26" x2="167.75" y2="117.26" xlink:href="#linear-gradient"/><linearGradient id="linear-gradient-4" x1="82.53" y1="15.86" x2="97.1" y2="30.43" xlink:href="#linear-gradient"/><linearGradient id="linear-gradient-5" x1="143.7" y1="147.13" x2="129.45" y2="122.44" xlink:href="#linear-gradient"/><linearGradient id="linear-gradient-6" x1="17.81" y1="134.05" x2="4.6" y2="111.17" xlink:href="#linear-gradient"/></defs><title>Asset 7</title><g id="Layer_2" data-name="Layer 2"><g id="path"><g id="arrows"><polygon class="cls-1" points="0 67.06 21.84 62.35 21.32 169.72 59.92 63.32 85.17 92.95 123.2 87.25 50.91 0 0 67.06"/><polygon class="cls-2" points="148.17 30.71 143.06 51.94 50.91 0 123.2 87.25 85.17 92.95 73.64 128.67 184.56 105.41 148.17 30.71"/><polygon class="cls-3" points="109.77 175.27 93.5 160.37 184.56 105.41 73.64 128.67 85.17 92.95 59.92 63.32 21.32 169.72 109.77 175.27"/><polygon class="cls-4" points="148.17 30.71 117.81 37.71 143.19 52.16 148.17 30.71"/><polygon class="cls-5" points="109.77 175.27 115.25 147.22 93.5 160.37 109.77 175.27"/><polygon class="cls-6" points="0 67.06 21.84 62.35 21.68 88.98 0 67.06"/></g></g></g></svg>