<svg xmlns="http://www.w3.org/2000/svg" xmlns:xlink="http://www.w3.org/1999/xlink" viewBox="0 0 385.01 339.96"><defs><style>.cls-1{fill:url(#linear-gradient);}.cls-2{fill:url(#linear-gradient-2);}.cls-3{fill:none;stroke:#1800ff;stroke-linejoin:round;}.cls-4{fill:url(#linear-gradient-3);}.cls-5{fill:url(#linear-gradient-4);}.cls-6{fill:url(#linear-gradient-5);}.cls-7{fill:url(#linear-gradient-6);}.cls-8{fill:url(#linear-gradient-7);}.cls-9{fill:url(#linear-gradient-8);}.cls-10{fill:url(#linear-gradient-9);}.cls-11{fill:url(#linear-gradient-10);}.cls-12{fill:url(#linear-gradient-11);}.cls-13{fill:url(#linear-gradient-12);}.cls-14{fill:url(#linear-gradient-13);}.cls-15{fill:url(#linear-gradient-14);}.cls-16{fill:url(#linear-gradient-15);}.cls-17{fill:url(#linear-gradient-16);}.cls-18{fill:url(#linear-gradient-17);}.cls-19{fill:url(#linear-gradient-18);}.cls-20{fill:url(#linear-gradient-19);}.cls-21{fill:url(#linear-gradient-20);}.cls-22{fill:url(#linear-gradient-21);}.cls-23{fill:url(#linear-gradient-22);}.cls-24{fill:url(#linear-gradient-23);}.cls-25{fill:url(#linear-gradient-24);}.cls-26{fill:url(#linear-gradient-25);}.cls-27{fill:url(#linear-gradient-26);}.cls-28{fill:url(#linear-gradient-27);}.cls-29{fill:url(#linear-gradient-28);}.cls-30{fill:url(#linear-gradient-29);}.cls-31{fill:url(#linear-gradient-30);}.cls-32{fill:url(#linear-gradient-31);}.cls-33{fill:url(#linear-gradient-32);}.cls-34{fill:url(#linear-gradient-33);}.cls-35{fill:url(#linear-gradient-34);}.cls-36{fill:url(#linear-gradient-35);}.cls-37{fill:url(#linear-gradient-36);}.cls-38{fill:url(#linear-gradient-37);}.cls-39{fill:url(#linear-gradient-38);}.cls-40{fill:url(#linear-gradient-39);}</style><linearGradient id="linear-gradient" y1="56.88" x2="196.29" y2="56.88" gradientUnits="userSpaceOnUse"><stop offset="0" stop-color="#27b5ac"/><stop offset="1" stop-color="#003b3e"/></linearGradient><linearGradient id="linear-gradient-2" x1="23.62" y1="161.31" x2="100.76" y2="27.71" xlink:href="#linear-gradient"/><linearGradient id="linear-gradient-3" x1="62.31" y1="157.36" x2="84.7" y2="170.29" xlink:href="#linear-gradient"/><linearGradient id="linear-gradient-4" x1="70.96" y1="191.97" x2="-3.63" y2="117.38" xlink:href="#linear-gradient"/><linearGradient id="linear-gradient-5" x1="161.36" y1="47.7" x2="106.87" y2="142.09" xlink:href="#linear-gradient"/><linearGradient id="linear-gradient-6" x1="155.09" y1="167.07" x2="107.68" y2="84.95" xlink:href="#linear-gradient"/><linearGradient id="linear-gradient-7" x1="193.55" y1="131.66" x2="214.66" y2="95.11" xlink:href="#linear-gradient"/><linearGradient id="linear-gradient-8" x1="73.46" y1="70.35" x2="241.67" y2="70.35" xlink:href="#linear-gradient"/><linearGradient id="linear-gradient-9" x1="189.39" y1="51.24" x2="248.56" y2="51.24" xlink:href="#linear-gradient"/><linearGradient id="linear-gradient-10" x1="198.6" y1="120.14" x2="291.38" y2="120.14" xlink:href="#linear-gradient"/><linearGradient id="linear-gradient-11" x1="295.51" y1="185.48" x2="241.53" y2="91.98" gradientUnits="userSpaceOnUse"><stop offset="0" stop-color="#27b5ac"/><stop offset="0.26" stop-color="#1c938d"/><stop offset="0.76" stop-color="#085454"/><stop offset="1" stop-color="#003b3e"/></linearGradient><linearGradient id="linear-gradient-12" x1="280.01" y1="194.43" x2="251.28" y2="144.65" xlink:href="#linear-gradient"/><linearGradient id="linear-gradient-13" x1="295.72" y1="125.22" x2="295.72" y2="87.22" xlink:href="#linear-gradient"/><linearGradient id="linear-gradient-14" x1="295.47" y1="125.22" x2="295.47" y2="164.55" xlink:href="#linear-gradient"/><linearGradient id="linear-gradient-15" x1="253.49" y1="63.67" x2="227.84" y2="38.02" xlink:href="#linear-gradient"/><linearGradient id="linear-gradient-16" x1="218.47" y1="31.39" x2="320.09" y2="31.39" xlink:href="#linear-gradient"/><linearGradient id="linear-gradient-17" x1="293.3" y1="96.74" x2="329.14" y2="34.67" xlink:href="#linear-gradient"/><linearGradient id="linear-gradient-18" x1="312.51" y1="125.22" x2="385.01" y2="125.22" xlink:href="#linear-gradient"/><linearGradient id="linear-gradient-19" x1="218.62" y1="177.07" x2="218.62" y2="202.04" xlink:href="#linear-gradient"/><linearGradient id="linear-gradient-20" x1="285.23" y1="125.22" x2="285.23" y2="225.96" xlink:href="#linear-gradient"/><linearGradient id="linear-gradient-21" x1="303.87" y1="210.73" x2="229.29" y2="253.79" xlink:href="#linear-gradient"/><linearGradient id="linear-gradient-22" x1="265.32" y1="270.59" x2="243.46" y2="232.73" xlink:href="#linear-gradient"/><linearGradient id="linear-gradient-23" x1="146.4" y1="191.74" x2="242.74" y2="247.36" xlink:href="#linear-gradient"/><linearGradient id="linear-gradient-24" x1="275.52" y1="295.6" x2="124.75" y2="295.6" xlink:href="#linear-gradient"/><linearGradient id="linear-gradient-25" x1="289.6" y1="253.01" x2="224.71" y2="317.9" xlink:href="#linear-gradient"/><linearGradient id="linear-gradient-26" x1="246.77" y1="282.96" x2="52.56" y2="282.96" xlink:href="#linear-gradient"/><linearGradient id="linear-gradient-27" x1="110.43" y1="233.17" x2="218.87" y2="233.17" xlink:href="#linear-gradient"/><linearGradient id="linear-gradient-28" x1="129.8" y1="258.17" x2="167.9" y2="258.17" xlink:href="#linear-gradient"/><linearGradient id="linear-gradient-29" x1="180.62" y1="287.51" x2="161.96" y2="255.19" xlink:href="#linear-gradient"/><linearGradient id="linear-gradient-30" x1="170.57" y1="163.82" x2="123.38" y2="163.82" xlink:href="#linear-gradient"/><linearGradient id="linear-gradient-31" x1="138.96" y1="226.01" x2="138.96" y2="201.94" xlink:href="#linear-gradient"/><linearGradient id="linear-gradient-32" x1="52.56" y1="182.11" x2="115.19" y2="182.11" xlink:href="#linear-gradient"/><linearGradient id="linear-gradient-33" x1="64.55" y1="232.38" x2="145.79" y2="232.38" xlink:href="#linear-gradient"/><linearGradient id="linear-gradient-34" x1="79.03" y1="80.77" x2="117.86" y2="80.77" xlink:href="#linear-gradient-11"/><linearGradient id="linear-gradient-35" x1="141.07" y1="54.2" x2="148.84" y2="98.23" xlink:href="#linear-gradient-11"/><linearGradient id="linear-gradient-36" x1="130.01" y1="51.34" x2="111.43" y2="83.51" xlink:href="#linear-gradient-11"/><linearGradient id="linear-gradient-37" x1="166.21" y1="101.29" x2="143.73" y2="62.36" xlink:href="#linear-gradient-11"/><linearGradient id="linear-gradient-38" x1="300.92" y1="166.93" x2="258.25" y2="147.03" xlink:href="#linear-gradient-11"/><linearGradient id="linear-gradient-39" x1="123.88" y1="245.17" x2="162.14" y2="218.38" xlink:href="#linear-gradient"/></defs><title>Asset 5</title><g id="Layer_2" data-name="Layer 2"><g id="path"><g id="maze"><polygon class="cls-1" points="189.4 11.94 73.45 11.94 14.68 113.75 0 113.75 65.61 0.11 196.29 0 189.4 11.94"/><polygon class="cls-2" points="86.06 36.68 73.45 11.94 14.68 113.75 50.93 177.07 66.23 150.57 43.48 110.42 86.06 36.68"/><path class="cls-3" d="M50.93,177.07"/><polygon class="cls-4" points="80.79 177.07 96.09 150.57 66.23 150.57 50.93 177.07 80.79 177.07"/><polygon class="cls-5" points="43.34 189.07 73.86 189.07 80.79 177.07 50.93 177.07 14.68 113.75 0 113.75 43.34 189.07"/><polygon class="cls-6" points="165.24 49.94 94.8 50.39 57.79 113.75 188.66 113.75 203.23 88.51 196.04 76.05 181.94 100.49 79.03 100.49 101.79 61.05 146.84 61.05 165.24 49.94"/><polygon class="cls-7" points="57.79 113.75 72.6 138.26 204.98 138.26 188.66 113.75 57.79 113.75"/><polygon class="cls-8" points="203.23 88.51 218.47 114.84 204.98 138.26 188.66 113.75 203.23 88.51"/><polygon class="cls-9" points="86.06 36.68 173.21 36.68 226.5 128.75 241.67 102.47 189.4 11.94 73.45 11.94 86.06 36.68"/><polygon class="cls-10" points="248.56 90.54 241.67 102.47 189.4 11.94 196.29 0 248.56 90.54"/><polygon class="cls-11" points="198.6 177.07 224.04 177.07 291.38 63.2 264.34 63.2 198.6 177.07"/><path class="cls-12" d="M291.38,63.2,224,177.07l14.61,25,15.59,0-14.29-25,22.39-38.81,11.82,20.46L291.08,188l36.27-62.81Zm-22.21,63.22,22.61-39.2,22.31,38-22.7,39.33Z"/><polygon class="cls-13" points="261.62 188.04 291.08 188.04 262.34 138.26 247.59 163.82 261.62 188.04"/><polygon class="cls-14" points="284.65 125.22 314.09 125.22 291.77 87.22 277.35 112.23 284.65 125.22"/><polygon class="cls-15" points="276.86 139.62 284.65 125.22 314.09 125.22 291.38 164.55 276.86 139.62"/><polygon class="cls-16" points="240.8 25.07 255.68 50.39 240.53 76.63 225.39 50.85 240.8 25.07"/><polygon class="cls-17" points="233.99 11.94 218.47 38.42 225.39 50.85 240.8 25.07 312.51 25.07 320.09 11.94 233.99 11.94"/><polygon class="cls-18" points="370.74 125.22 312.51 25.07 240.8 25.07 255.68 50.39 299.63 50.39 342.63 125.22 370.74 125.22"/><polygon class="cls-19" points="385.01 125.73 319.9 238.5 312.58 225.96 370.74 125.22 312.51 25.07 320.09 11.94 385.01 125.73"/><polygon class="cls-20" points="212.73 201.97 238.65 202.04 224.04 177.07 198.6 177.07 212.73 201.97"/><polygon class="cls-21" points="298.19 202.19 342.63 125.22 370.74 125.22 312.58 225.96 213.35 225.96 199.72 201.94 298.19 202.19"/><polygon class="cls-22" points="220.47 238.5 213.35 225.96 312.58 225.96 319.9 238.5 220.47 238.5"/><polygon class="cls-23" points="248.33 264.7 275.52 264.7 260 238.5 233.46 238.5 248.33 264.7"/><polygon class="cls-24" points="234.04 262.43 170.57 150.57 154.87 177.07 218.88 288.69 234.04 262.43"/><polygon class="cls-25" points="275.52 264.7 239.63 326.5 124.75 326.5 138.51 302.67 226.41 302.67 248.33 264.7 275.52 264.7"/><polygon class="cls-26" points="246.77 339.96 239.63 326.5 275.52 264.7 260 238.5 275.1 238.5 290.2 264.73 246.77 339.96"/><polygon class="cls-27" points="117.67 339.96 246.77 339.96 239.63 326.5 124.75 326.5 64.55 225.96 52.56 225.96 117.67 339.96"/><polygon class="cls-28" points="154.87 177.07 123.38 177.07 116.45 189.07 146.24 189.07 197.31 277.88 152.79 277.94 129.8 238.57 160.29 238.4 174.54 238.32 167.48 226.01 147.63 225.96 110.43 225.96 146.25 289.26 218.88 288.69 154.87 177.07"/><polygon class="cls-29" points="167.9 251.77 152.79 277.94 129.8 238.57 160.29 238.4 167.9 251.77"/><polygon class="cls-30" points="182.22 251.64 167.9 251.77 152.79 277.94 197.31 277.88 182.22 251.64"/><polygon class="cls-31" points="138.68 150.57 170.57 150.57 154.87 177.07 123.38 177.07 138.68 150.57"/><polygon class="cls-32" points="153.64 201.94 124.3 201.94 110.43 225.96 167.48 226.01 153.64 201.94"/><polygon class="cls-33" points="52.56 225.96 64.55 225.96 115.19 138.26 103.19 138.26 52.56 225.96"/><polygon class="cls-34" points="94.65 226.84 145.79 138.26 115.19 138.26 64.55 225.96 124.75 326.5 138.51 302.67 94.65 226.84"/><polygon class="cls-35" points="101.79 61.05 117.86 87.22 109.83 100.49 79.03 100.49 101.79 61.05"/><polyline class="cls-36" points="165.24 49.94 136.04 100.49 124.32 100.49 146.84 61.05 165.24 49.94"/><polygon class="cls-37" points="146.84 61.05 101.79 61.05 117.86 87.22 131.89 87.22 146.84 61.05"/><polyline class="cls-38" points="181.52 76.38 167.6 100.49 136.04 100.49 165.24 49.94 181.52 76.38"/><polygon class="cls-39" points="262.34 138.26 269.17 126.42 291.38 164.55 291.08 188.04 262.34 138.26"/><polygon class="cls-40" points="167.48 226.01 174.54 238.32 129.8 238.57 110.43 225.96 167.48 226.01"/></g></g></g></svg>