<svg xmlns="http://www.w3.org/2000/svg" viewBox="0 0 40.43 11.55"><defs><style>.cls-1{fill:#eb7f91;}</style></defs><title>Asset 2</title><g id="Layer_2" data-name="Layer 2"><g id="Layer_1-2" data-name="Layer 1"><path class="cls-1" d="M6.53.79H3.42V9H3.11V.79H0V.47H6.53Z"/><path class="cls-1" d="M10.21,2.89l-.41,0a1.88,1.88,0,0,0-1.35.52,2.61,2.61,0,0,0-.71,1.47V9H7.42V2.66h.32V4a2.33,2.33,0,0,1,.77-1A2.1,2.1,0,0,1,9.8,2.54a1.27,1.27,0,0,1,.45.07Z"/><path class="cls-1" d="M11.34.68a.32.32,0,0,1,.09-.23.31.31,0,0,1,.23-.1.32.32,0,0,1,.23.1.32.32,0,0,1,.1.23.31.31,0,0,1-.1.23.32.32,0,0,1-.23.09.32.32,0,0,1-.32-.32ZM11.82,9h-.32V2.66h.32Z"/><path class="cls-1" d="M18,9a4.4,4.4,0,0,1-.12-1.16,2.54,2.54,0,0,1-1,.94,3.17,3.17,0,0,1-1.47.33A2,2,0,0,1,14,8.64a1.59,1.59,0,0,1-.54-1.25A1.61,1.61,0,0,1,14.22,6a3.79,3.79,0,0,1,2.09-.54h1.56V4.54a1.56,1.56,0,0,0-.5-1.24,2.11,2.11,0,0,0-1.43-.44,2.31,2.31,0,0,0-1.45.45,1.34,1.34,0,0,0-.58,1.1h-.32a1.62,1.62,0,0,1,.68-1.31,2.59,2.59,0,0,1,1.66-.54,2.43,2.43,0,0,1,1.63.51A1.84,1.84,0,0,1,18.2,4.5v3a4.07,4.07,0,0,0,.16,1.42V9Zm-2.61-.2a2.85,2.85,0,0,0,1.53-.4,2.47,2.47,0,0,0,1-1.12V5.78H16.42a3.43,3.43,0,0,0-2.08.54,1.32,1.32,0,0,0-.59,1.1,1.26,1.26,0,0,0,.46,1A1.72,1.72,0,0,0,15.39,8.8Z"/><path class="cls-1" d="M20.55,4.14A2.65,2.65,0,0,1,21.47,3a2.26,2.26,0,0,1,1.34-.43,1.89,1.89,0,0,1,1.51.58,2.64,2.64,0,0,1,.5,1.74V9H24.5V4.86a2.34,2.34,0,0,0-.42-1.51,1.61,1.61,0,0,0-1.3-.49,2,2,0,0,0-1.42.58,3,3,0,0,0-.81,1.5V9h-.32V2.66h.32Z"/><path class="cls-1" d="M26.51,5.77a3.88,3.88,0,0,1,.64-2.37,2.07,2.07,0,0,1,1.75-.85,2.43,2.43,0,0,1,1.26.33,2.36,2.36,0,0,1,.88,1V2.66h.32V8.89a2.8,2.8,0,0,1-.64,2,2.25,2.25,0,0,1-1.75.71,2.5,2.5,0,0,1-1.17-.28,2.59,2.59,0,0,1-.91-.79l.22-.21a2.79,2.79,0,0,0,.81.72,2.07,2.07,0,0,0,1,.25,2,2,0,0,0,1.52-.59A2.45,2.45,0,0,0,31,9V8a2.21,2.21,0,0,1-.89.83,2.72,2.72,0,0,1-1.27.29,2,2,0,0,1-1.74-.87,4,4,0,0,1-.64-2.4Zm.32.12A3.7,3.7,0,0,0,27.37,8a1.74,1.74,0,0,0,1.51.78,2.42,2.42,0,0,0,1.37-.37,2,2,0,0,0,.8-1V4.51a2.09,2.09,0,0,0-2.15-1.65,1.75,1.75,0,0,0-1.52.77A3.91,3.91,0,0,0,26.83,5.89Z"/><path class="cls-1" d="M33.78,9h-.32V0h.32Z"/><path class="cls-1" d="M38.14,9.12a2.55,2.55,0,0,1-1.41-.41,2.83,2.83,0,0,1-1-1.13A3.5,3.5,0,0,1,35.36,6V5.71a3.67,3.67,0,0,1,.35-1.61,2.79,2.79,0,0,1,1-1.14A2.37,2.37,0,0,1,38,2.54a2.22,2.22,0,0,1,1.73.76,2.87,2.87,0,0,1,.67,2v.33H35.68V6A3.18,3.18,0,0,0,36,7.39a2.56,2.56,0,0,0,.9,1,2.22,2.22,0,0,0,1.24.37,2.52,2.52,0,0,0,1.09-.21A2.21,2.21,0,0,0,40,7.93l.22.16A2.39,2.39,0,0,1,38.14,9.12ZM38,2.86a2.07,2.07,0,0,0-1.57.69A2.93,2.93,0,0,0,35.7,5.3h4.42V5.23A2.68,2.68,0,0,0,39.84,4a2.1,2.1,0,0,0-.75-.86A1.93,1.93,0,0,0,38,2.86Z"/></g></g></svg>