<svg xmlns="http://www.w3.org/2000/svg" viewBox="0 0 56.5 11.44"><defs><style>.cls-1{fill:#f0f0f0;}</style></defs><title>Asset 1</title><g id="Layer_2" data-name="Layer 2"><g id="Layer_1-2" data-name="Layer 1"><path class="cls-1" d="M1.13,9H0V.47H1.13Z"/><path class="cls-1" d="M4,2.66l0,.7a2.34,2.34,0,0,1,1.88-.82,1.81,1.81,0,0,1,1.81,1,2.4,2.4,0,0,1,.82-.74,2.43,2.43,0,0,1,1.2-.28q2.09,0,2.12,2.21V9H10.81V4.82a1.46,1.46,0,0,0-.31-1,1.37,1.37,0,0,0-1-.34,1.44,1.44,0,0,0-1,.36,1.46,1.46,0,0,0-.46,1V9H6.9V4.85A1.21,1.21,0,0,0,5.55,3.46a1.45,1.45,0,0,0-1.46.91V9H3V2.66Z"/><path class="cls-1" d="M18.88,5.9a3.8,3.8,0,0,1-.66,2.33,2.12,2.12,0,0,1-1.79.88,2.33,2.33,0,0,1-1.82-.73v3.05H13.53V2.66h1l.05.7a2.23,2.23,0,0,1,1.84-.82,2.16,2.16,0,0,1,1.81.86,3.84,3.84,0,0,1,.67,2.4ZM17.8,5.78a2.8,2.8,0,0,0-.46-1.69,1.47,1.47,0,0,0-1.25-.62,1.59,1.59,0,0,0-1.48.87v3a1.6,1.6,0,0,0,1.49.87,1.47,1.47,0,0,0,1.24-.62A3.06,3.06,0,0,0,17.8,5.78Z"/><path class="cls-1" d="M19.71,3.06h6.09l-3,5.68Z"/><path class="cls-1" d="M30.15,7.32a.8.8,0,0,0-.33-.68,3.19,3.19,0,0,0-1.15-.42,5.46,5.46,0,0,1-1.31-.42,1.86,1.86,0,0,1-.71-.59,1.4,1.4,0,0,1-.23-.81,1.64,1.64,0,0,1,.66-1.32,2.57,2.57,0,0,1,1.68-.54,2.65,2.65,0,0,1,1.75.56,1.77,1.77,0,0,1,.67,1.42H30.09a1,1,0,0,0-.38-.77,1.42,1.42,0,0,0-1-.32,1.48,1.48,0,0,0-.93.26.81.81,0,0,0-.33.67.66.66,0,0,0,.31.59,3.82,3.82,0,0,0,1.12.38,5.85,5.85,0,0,1,1.32.43,1.92,1.92,0,0,1,.75.61,1.49,1.49,0,0,1,.24.86,1.62,1.62,0,0,1-.68,1.36,2.85,2.85,0,0,1-1.76.51,3.19,3.19,0,0,1-1.35-.27,2.19,2.19,0,0,1-.92-.75,1.81,1.81,0,0,1-.33-1h1.08a1.12,1.12,0,0,0,.44.86,1.69,1.69,0,0,0,1.08.32,1.75,1.75,0,0,0,1-.25A.77.77,0,0,0,30.15,7.32Z"/><path class="cls-1" d="M36.34,7.32A.8.8,0,0,0,36,6.64a3.19,3.19,0,0,0-1.15-.42,5.46,5.46,0,0,1-1.31-.42,1.86,1.86,0,0,1-.71-.59,1.4,1.4,0,0,1-.23-.81,1.64,1.64,0,0,1,.66-1.32,2.57,2.57,0,0,1,1.68-.54,2.65,2.65,0,0,1,1.75.56,1.77,1.77,0,0,1,.67,1.42H36.28a1,1,0,0,0-.38-.77,1.42,1.42,0,0,0-1-.32,1.48,1.48,0,0,0-.93.26.81.81,0,0,0-.33.67A.66.66,0,0,0,34,5a3.82,3.82,0,0,0,1.12.38,5.85,5.85,0,0,1,1.32.43,1.92,1.92,0,0,1,.75.61,1.49,1.49,0,0,1,.24.86,1.62,1.62,0,0,1-.68,1.36A2.85,2.85,0,0,1,35,9.12a3.19,3.19,0,0,1-1.35-.27,2.19,2.19,0,0,1-.92-.75,1.81,1.81,0,0,1-.33-1h1.08a1.12,1.12,0,0,0,.44.86A1.69,1.69,0,0,0,35,8.23,1.75,1.75,0,0,0,36,8,.77.77,0,0,0,36.34,7.32Z"/><path class="cls-1" d="M38.84,1A.65.65,0,0,1,39,.53a.6.6,0,0,1,.48-.18A.61.61,0,0,1,40,.53a.64.64,0,0,1,.16.45.62.62,0,0,1-.16.44.63.63,0,0,1-.48.18A.62.62,0,0,1,39,1.42.63.63,0,0,1,38.84,1ZM40,9H38.93V2.66H40Z"/><path class="cls-1" d="M47.12,5.9a3.77,3.77,0,0,1-.67,2.33,2.13,2.13,0,0,1-1.79.88,2.21,2.21,0,0,1-1.86-.85L42.74,9h-1V0h1.08V3.36a2.2,2.2,0,0,1,1.81-.81,2.15,2.15,0,0,1,1.81.87,3.88,3.88,0,0,1,.66,2.39ZM46,5.78a2.93,2.93,0,0,0-.43-1.71,1.42,1.42,0,0,0-1.23-.6,1.59,1.59,0,0,0-1.54,1V7.2a1.64,1.64,0,0,0,1.55,1,1.41,1.41,0,0,0,1.21-.6A3.11,3.11,0,0,0,46,5.78Z"/><path class="cls-1" d="M49.66,9H48.57V0h1.08Z"/><path class="cls-1" d="M54,9.12a2.77,2.77,0,0,1-2.1-.85A3.14,3.14,0,0,1,51.12,6v-.2a3.8,3.8,0,0,1,.36-1.68,2.81,2.81,0,0,1,1-1.16,2.53,2.53,0,0,1,1.4-.42,2.37,2.37,0,0,1,1.92.81,3.53,3.53,0,0,1,.69,2.33v.45H52.2a2.25,2.25,0,0,0,.55,1.51,1.72,1.72,0,0,0,1.33.58,1.89,1.89,0,0,0,1-.23,2.44,2.44,0,0,0,.7-.62l.66.52A2.66,2.66,0,0,1,54,9.12Zm-.13-5.68a1.45,1.45,0,0,0-1.1.48,2.32,2.32,0,0,0-.55,1.34h3.18V5.17A2.06,2.06,0,0,0,55,3.89,1.36,1.36,0,0,0,53.89,3.43Z"/></g></g></svg>